<svg width="16.000000" height="17.000000" viewBox="0 0 16 17" fill="none" xmlns="http://www.w3.org/2000/svg" xmlns:xlink="http://www.w3.org/1999/xlink">
	<desc>
			Created with Pixso.
	</desc>
	<defs/>
	<path id="Path 3414" d="M15.25 7.09C15.17 6.41 14.84 5.78 14.33 5.31C13.82 4.84 13.15 4.56 12.44 4.53L12.44 4.33C12.44 3.76 12.33 3.19 12.1 2.67C11.88 2.14 11.55 1.67 11.13 1.26C10.72 0.86 10.22 0.54 9.68 0.32C9.14 0.11 8.56 -0.01 7.97 0C6.78 0 5.64 0.45 4.81 1.26C3.97 2.08 3.5 3.18 3.5 4.33L3.5 4.53C2.8 4.58 2.14 4.86 1.64 5.33C1.14 5.8 0.82 6.42 0.74 7.09L0 13.68C0 14.56 0.36 15.41 1.01 16.03C1.66 16.65 2.53 17 3.44 17L12.55 17C13.46 17 14.33 16.65 14.98 16.03C15.63 15.41 15.99 14.56 16 13.68L15.25 7.09ZM4.81 4.33C4.81 3.93 4.89 3.53 5.05 3.16C5.21 2.79 5.44 2.45 5.73 2.17C6.03 1.89 6.38 1.66 6.76 1.51C7.14 1.35 7.55 1.27 7.97 1.27C8.38 1.27 8.79 1.35 9.18 1.51C9.56 1.66 9.91 1.89 10.2 2.17C10.49 2.45 10.73 2.79 10.89 3.16C11.05 3.53 11.13 3.93 11.13 4.33L11.13 4.52L4.81 4.52L4.81 4.33ZM5.43 8.84C5.33 8.84 5.22 8.82 5.13 8.78C5.03 8.74 4.94 8.68 4.87 8.61C4.8 8.54 4.74 8.45 4.7 8.36C4.66 8.27 4.64 8.17 4.64 8.07C4.64 7.97 4.66 7.87 4.7 7.77C4.74 7.68 4.8 7.59 4.87 7.52C4.94 7.45 5.03 7.39 5.13 7.36C5.22 7.32 5.33 7.3 5.43 7.3C5.54 7.3 5.64 7.32 5.74 7.36C5.83 7.39 5.92 7.45 5.99 7.52C6.07 7.59 6.13 7.68 6.17 7.77C6.21 7.87 6.23 7.97 6.23 8.07C6.23 8.17 6.21 8.27 6.17 8.36C6.13 8.45 6.07 8.54 5.99 8.61C5.92 8.68 5.83 8.74 5.74 8.78C5.64 8.82 5.54 8.84 5.43 8.84ZM10.56 8.84C10.46 8.84 10.35 8.82 10.26 8.78C10.16 8.74 10.07 8.68 10 8.61C9.92 8.54 9.86 8.45 9.82 8.36C9.78 8.27 9.76 8.17 9.76 8.07C9.76 7.97 9.78 7.87 9.82 7.77C9.86 7.68 9.92 7.59 10 7.52C10.07 7.45 10.16 7.39 10.26 7.36C10.35 7.32 10.46 7.3 10.56 7.3C10.66 7.3 10.77 7.32 10.86 7.36C10.96 7.39 11.05 7.45 11.12 7.52C11.19 7.59 11.25 7.68 11.29 7.77C11.33 7.87 11.35 7.97 11.35 8.07C11.35 8.17 11.33 8.27 11.29 8.36C11.25 8.45 11.19 8.54 11.12 8.61C11.05 8.68 10.96 8.74 10.86 8.78C10.77 8.82 10.66 8.84 10.56 8.84Z" fill="#D5D5D9" fill-opacity="1.000000" fill-rule="nonzero"/>
</svg>
