<svg width="420.000000" height="373.690491" viewBox="0 0 420 373.69" fill="none" xmlns="http://www.w3.org/2000/svg" xmlns:xlink="http://www.w3.org/1999/xlink">
	<desc>
			Created with Pixso.
	</desc>
	<defs>
		<filter id="filter_3_351_dd" x="0.000000" y="27.611115" width="189.079346" height="266.865082" filterUnits="userSpaceOnUse" color-interpolation-filters="sRGB">
			<feFlood flood-opacity="0" result="BackgroundImageFix"/>
			<feColorMatrix in="SourceAlpha" type="matrix" values="0 0 0 0 0 0 0 0 0 0 0 0 0 0 0 0 0 0 127 0" result="hardAlpha"/>
			<feOffset dx="-2" dy="9"/>
			<feGaussianBlur stdDeviation="11.6667"/>
			<feComposite in2="hardAlpha" operator="out" k2="-1" k3="1"/>
			<feColorMatrix type="matrix" values="0 0 0 0 1 0 0 0 0 0.77255 0 0 0 0 0.16078 0 0 0 0.25 0"/>
			<feBlend mode="normal" in2="BackgroundImageFix" result="effect_dropShadow_1"/>
			<feBlend mode="normal" in="SourceGraphic" in2="effect_dropShadow_1" result="shape"/>
		</filter>
		<filter id="filter_3_352_dd" x="152.904785" y="0.000000" width="267.095215" height="373.690491" filterUnits="userSpaceOnUse" color-interpolation-filters="sRGB">
			<feFlood flood-opacity="0" result="BackgroundImageFix"/>
			<feColorMatrix in="SourceAlpha" type="matrix" values="0 0 0 0 0 0 0 0 0 0 0 0 0 0 0 0 0 0 127 0" result="hardAlpha"/>
			<feOffset dx="-30" dy="30"/>
			<feGaussianBlur stdDeviation="16.6667"/>
			<feComposite in2="hardAlpha" operator="out" k2="-1" k3="1"/>
			<feColorMatrix type="matrix" values="0 0 0 0 0.99608 0 0 0 0 0.44706 0 0 0 0 0.29804 0 0 0 0.2 0"/>
			<feBlend mode="normal" in2="BackgroundImageFix" result="effect_dropShadow_1"/>
			<feBlend mode="normal" in="SourceGraphic" in2="effect_dropShadow_1" result="shape"/>
		</filter>
	</defs>
	<path id="Vector" d="M227.14 152.52C227.14 177.98 206.5 198.61 181.04 198.61C155.59 198.61 134.95 177.98 134.95 152.52C134.95 127.06 155.59 106.42 181.04 106.42C206.5 106.42 227.14 127.06 227.14 152.52Z" fill="#FFE2DA" fill-opacity="1.000000" fill-rule="evenodd"/>
	<g filter="url(#filter_3_351_dd)">
		<path id="Vector" d="M156.07 250.47L156.07 173.08C156.07 107.1 102.75 53.61 37 53.61L37 131C37 196.97 90.32 250.47 156.07 250.47Z" fill="#FFC529" fill-opacity="1.000000" fill-rule="nonzero"/>
	</g>
	<g filter="url(#filter_3_352_dd)">
		<path id="Vector" d="M232.9 293.69L232.9 186.06C232.9 94.34 307.71 20 400 20L400 127.62C400 219.34 325.19 293.69 232.9 293.69Z" fill="#FE724C" fill-opacity="1.000000" fill-rule="nonzero"/>
	</g>
</svg>
