<svg width="17.250000" height="19.166672" viewBox="0 0 17.25 19.1667" fill="none" xmlns="http://www.w3.org/2000/svg" xmlns:xlink="http://www.w3.org/1999/xlink">
	<desc>
			Created with Pixso.
	</desc>
	<defs/>
	<g opacity="0.400000" style="mix-blend-mode:normal">
		<path id="Path" d="M12.64 0L4.6 0C1.69 0 0 1.7 0 4.62L0 14.52C0 17.49 1.69 19.16 4.6 19.16L12.64 19.16C15.6 19.16 17.25 17.49 17.25 14.52L17.25 4.62C17.25 1.7 15.6 0 12.64 0Z" fill="#9796A1" fill-opacity="1.000000" fill-rule="nonzero"/>
	</g>
	<path id="Combined Shape" d="M4.86804 4.45607L4.86804 4.46565C4.45496 4.46565 4.12054 4.80107 4.12054 5.21315C4.12054 5.62524 4.45496 5.96065 4.86804 5.96065L7.73248 5.96065C8.14551 5.96065 8.48096 5.62524 8.48096 5.20261C8.48096 4.79149 8.14551 4.45607 7.73248 4.45607L4.86804 4.45607ZM12.3813 10.2924L4.86804 10.2924C4.45496 10.2924 4.12054 9.95695 4.12054 9.54488C4.12054 9.13278 4.45496 8.79642 4.86804 8.79642L12.3813 8.79642C12.7935 8.79642 13.1288 9.13278 13.1288 9.54488C13.1288 9.95695 12.7935 10.2924 12.3813 10.2924ZM12.3815 14.6718L4.86816 14.6718C4.58069 14.7102 4.30273 14.5664 4.14941 14.3268C3.99609 14.0777 3.99609 13.7614 4.14941 13.5219C4.30273 13.2727 4.58069 13.1385 4.86816 13.1673L12.3815 13.1673C12.7639 13.2056 13.0524 13.5314 13.0524 13.9243C13.0524 14.3067 12.7639 14.6335 12.3815 14.6718Z" clip-rule="evenodd" fill="#9796A1" fill-opacity="1.000000" fill-rule="evenodd"/>
</svg>
