<svg width="70.428574" height="70.428589" viewBox="0 0 70.4286 70.4286" fill="none" xmlns="http://www.w3.org/2000/svg" xmlns:xlink="http://www.w3.org/1999/xlink">
	<desc>
			Created with Pixso.
	</desc>
	<defs>
		<filter id="filter_3_80_dd" x="0.000000" y="0.000000" width="70.428574" height="70.428589" filterUnits="userSpaceOnUse" color-interpolation-filters="sRGB">
			<feFlood flood-opacity="0" result="BackgroundImageFix"/>
			<feColorMatrix in="SourceAlpha" type="matrix" values="0 0 0 0 0 0 0 0 0 0 0 0 0 0 0 0 0 0 127 0" result="hardAlpha"/>
			<feOffset dx="0" dy="8.5"/>
			<feGaussianBlur stdDeviation="6.07143"/>
			<feComposite in2="hardAlpha" operator="out" k2="-1" k3="1"/>
			<feColorMatrix type="matrix" values="0 0 0 0 0.99608 0 0 0 0 0.44706 0 0 0 0 0.29804 0 0 0 0.4 0"/>
			<feBlend mode="normal" in2="BackgroundImageFix" result="effect_dropShadow_1"/>
			<feBlend mode="normal" in="SourceGraphic" in2="effect_dropShadow_1" result="shape"/>
		</filter>
	</defs>
	<g filter="url(#filter_3_80_dd)">
		<path id="Ellipse 58" d="M52.21 26.71C52.21 36.1 44.6 43.71 35.21 43.71C25.82 43.71 18.21 36.1 18.21 26.71C18.21 17.32 25.82 9.71 35.21 9.71C44.6 9.71 52.21 17.32 52.21 26.71Z" fill="#FE724C" fill-opacity="1.000000" fill-rule="evenodd"/>
	</g>
	<path id="Path 3414" d="M42.6 25.66C42.53 24.98 42.2 24.35 41.69 23.88C41.17 23.41 40.5 23.13 39.8 23.1L39.8 22.9C39.8 22.33 39.68 21.77 39.46 21.24C39.23 20.71 38.9 20.24 38.49 19.84C38.07 19.43 37.58 19.11 37.04 18.9C36.49 18.68 35.91 18.57 35.33 18.57C34.14 18.57 33 19.02 32.16 19.84C31.32 20.65 30.85 21.75 30.85 22.9L30.85 23.1C30.16 23.15 29.5 23.43 29 23.9C28.49 24.37 28.18 24.99 28.1 25.66L27.35 32.25C27.36 33.13 27.72 33.98 28.37 34.6C29.01 35.22 29.89 35.57 30.8 35.57L39.9 35.57C40.82 35.57 41.69 35.22 42.34 34.6C42.98 33.98 43.35 33.13 43.35 32.25L42.6 25.66ZM32.17 22.91C32.17 22.5 32.25 22.11 32.41 21.74C32.57 21.36 32.8 21.03 33.09 20.74C33.38 20.46 33.73 20.23 34.12 20.08C34.5 19.93 34.91 19.85 35.32 19.85C35.74 19.85 36.15 19.92 36.53 20.08C36.92 20.23 37.26 20.46 37.56 20.74C37.85 21.03 38.08 21.36 38.24 21.73C38.4 22.11 38.48 22.5 38.48 22.91L38.48 23.09L32.17 23.09L32.17 22.91ZM32.79 27.41C32.69 27.41 32.58 27.39 32.49 27.35C32.39 27.31 32.3 27.25 32.23 27.18C32.15 27.11 32.1 27.03 32.06 26.93C32.02 26.84 32 26.74 32 26.64C32 26.54 32.02 26.44 32.06 26.34C32.1 26.25 32.15 26.17 32.23 26.09C32.3 26.02 32.39 25.97 32.49 25.93C32.58 25.89 32.69 25.87 32.79 25.87C32.89 25.87 33 25.89 33.09 25.93C33.19 25.97 33.28 26.02 33.35 26.09C33.43 26.17 33.48 26.25 33.52 26.34C33.56 26.44 33.59 26.54 33.59 26.64C33.59 26.74 33.56 26.84 33.52 26.93C33.48 27.03 33.43 27.11 33.35 27.18C33.28 27.25 33.19 27.31 33.09 27.35C33 27.39 32.89 27.41 32.79 27.41ZM37.92 27.41C37.81 27.41 37.71 27.39 37.61 27.35C37.52 27.31 37.43 27.25 37.35 27.18C37.28 27.11 37.22 27.03 37.18 26.93C37.14 26.84 37.12 26.74 37.12 26.64C37.12 26.54 37.14 26.44 37.18 26.34C37.22 26.25 37.28 26.17 37.35 26.09C37.43 26.02 37.52 25.97 37.61 25.93C37.71 25.89 37.81 25.87 37.92 25.87C38.02 25.87 38.12 25.89 38.22 25.93C38.32 25.97 38.4 26.02 38.48 26.09C38.55 26.17 38.61 26.25 38.65 26.34C38.69 26.44 38.71 26.54 38.71 26.64C38.71 26.74 38.69 26.84 38.65 26.93C38.61 27.03 38.55 27.11 38.48 27.18C38.4 27.25 38.32 27.31 38.22 27.35C38.12 27.39 38.02 27.41 37.92 27.41Z" fill="#FFFFFF" fill-opacity="1.000000" fill-rule="nonzero"/>
</svg>
